# xmcd CD database file
#
# Track frame offsets:
#	150
#	24307
#	45617
#	70920
#	93152
#	113005
#	141090
#	166007
#	190345
#	218822
#	240302
#	265037
#
# Disc length: 3961 seconds
#
# Revision: 10
# Processed by: cddbd v1.5.2PL0 Copyright (c) Steve Scherf et al.
# Submitted via: CDex 1.70beta3
#
DISCID=950f770c
DTITLE=CHAGE&ASKA - TREE
DYEAR=1991
DGENRE=JPop
TTITLE0=僕はこの瞳で嘘をつく
TTITLE1=SAY YES
TTITLE2=クルミを割れた日
TTITLE3=CAT WALK
TTITLE4=夜のうちに
TTITLE5=MOZART VIRUS DAY
TTITLE6=誰かさん 〜CLOSE YOUR EYES〜
TTITLE7=明け方の君
TTITLE8=CATCH and RELEASE
TTITLE9=BAD NEWS GOOD NEWS
TTITLE10=BIG TREE
TTITLE11=tomorrow
EXTD=YEAR: 1991
EXTT0=
EXTT1=
EXTT2=
EXTT3=
EXTT4=
EXTT5=
EXTT6=
EXTT7=
EXTT8=
EXTT9=
EXTT10=
EXTT11=
PLAYORDER=
